<?xml version="1.0" encoding="UTF-8" standalone="no"?>
<!-- Created with Inkscape (http://www.inkscape.org/) -->

<svg
   xmlns:dc="http://purl.org/dc/elements/1.1/"
   xmlns:cc="http://creativecommons.org/ns#"
   xmlns:rdf="http://www.w3.org/1999/02/22-rdf-syntax-ns#"
   xmlns:svg="http://www.w3.org/2000/svg"
   xmlns="http://www.w3.org/2000/svg"
   xmlns:sodipodi="http://sodipodi.sourceforge.net/DTD/sodipodi-0.dtd"
   xmlns:inkscape="http://www.inkscape.org/namespaces/inkscape"
   width="59"
   height="16"
   viewBox="0 0 15.610417 4.2333332"
   version="1.1"
   id="svg8"
   inkscape:version="0.92.3 (2405546, 2018-03-11)"
   sodipodi:docname="logo-white.svg"
   inkscape:export-filename="E:\pojects\coding\yamba\artwork\logo.png"
   inkscape:export-xdpi="3254.24"
   inkscape:export-ydpi="3254.24">
  <defs
     id="defs2" />
  <sodipodi:namedview
     id="base"
     pagecolor="#ffffff"
     bordercolor="#666666"
     borderopacity="1.0"
     inkscape:pageopacity="0.0"
     inkscape:pageshadow="2"
     inkscape:zoom="22.627417"
     inkscape:cx="23.21713"
     inkscape:cy="9.1353186"
     inkscape:document-units="mm"
     inkscape:current-layer="layer1"
     showgrid="false"
     units="px"
     inkscape:window-width="2560"
     inkscape:window-height="1329"
     inkscape:window-x="0"
     inkscape:window-y="0"
     inkscape:window-maximized="1" />
  <metadata
     id="metadata5">
    <rdf:RDF>
      <cc:Work
         rdf:about="">
        <dc:format>image/svg+xml</dc:format>
        <dc:type
           rdf:resource="http://purl.org/dc/dcmitype/StillImage" />
        <dc:title />
      </cc:Work>
    </rdf:RDF>
  </metadata>
  <g
     inkscape:label="Ebene 1"
     inkscape:groupmode="layer"
     id="layer1"
     transform="translate(0,-292.76667)">
    <path
       style="opacity:1;fill:#007fff;fill-opacity:1;stroke:#000000;stroke-width:0.13229167;stroke-linecap:butt;stroke-linejoin:miter;stroke-miterlimit:4;stroke-dasharray:none;stroke-opacity:1;paint-order:markers stroke fill"
       d="m 0.2645833,293.03125 v 0.52917 c 0.00354,0.8658 0.7098865,1.58691 1.5875,1.5875 H 2.38125 c -0.014515,0.57411 -0.438286,1.04799 -1.0583333,1.05833 H 0.2645833 l 0.0072,0.52503 1.0571522,0.003 c 0.9322406,-0.003 1.5763312,-0.77359 1.5814807,-1.58634 v -2.11667 H 2.38125 l 0.013697,1.59165 -0.5428634,-0.004 c -0.6451187,-0.004 -1.0451435,-0.51361 -1.0583333,-1.05833 l 1.138e-4,-0.52917 z"
       id="path4543"
       inkscape:connector-curvature="0"
       sodipodi:nodetypes="cccccccccccccccc" />
    <path
       sodipodi:nodetypes="ccccccccccccccc"
       inkscape:connector-curvature="0"
       id="path4585"
       d="m 6.0854167,296.73542 h 0.5291666 v -2.11667 c 0.019741,-0.60505 0.4635357,-1.0395 1.0583334,-1.05833 v 1.5875 h 0.5291666 v -1.5875 c 0.6214953,0.004 1.0392378,0.48999 1.0583338,1.05833 v 2.11667 h 0.529166 v -2.11667 c -0.0035,-0.8215 -0.668545,-1.58691 -1.5874998,-1.5875 H 7.6729167 c -0.8923782,0.004 -1.5839565,0.73056 -1.5875,1.5875 z"
       style="font-style:normal;font-weight:normal;font-size:medium;line-height:1.25;font-family:sans-serif;letter-spacing:0px;word-spacing:0px;opacity:1;fill:#007fff;fill-opacity:1;stroke:#000000;stroke-width:0.13229167;stroke-linecap:butt;stroke-linejoin:miter;stroke-miterlimit:4;stroke-dasharray:none;stroke-opacity:1;paint-order:markers stroke fill" />
    <path
       sodipodi:nodetypes="cccccccccccccccc"
       inkscape:connector-curvature="0"
       id="path4565"
       d="m 3.175,293.03125 v 0.52917 h 1.0583333 c 0.5476719,0.007 1.0510494,0.43979 1.0583333,1.05833 H 4.7625 c -0.9662017,0.009 -1.5839564,0.82505 -1.5875,1.5875 v 0.52917 h 2.6458333 v -2.11667 c 0.00236,-0.78902 -0.6655924,-1.58395 -1.5875,-1.5875 z m 1.5875,2.11667 h 0.5291666 v 1.05833 H 3.7041667 c 0.027043,-0.59499 0.4758708,-1.04799 1.0583333,-1.05833 z"
       style="font-style:normal;font-weight:normal;font-size:medium;line-height:1.25;font-family:sans-serif;letter-spacing:0px;word-spacing:0px;opacity:1;fill:#007fff;fill-opacity:1;stroke:#000000;stroke-width:0.13229167;stroke-linecap:butt;stroke-linejoin:miter;stroke-miterlimit:4;stroke-dasharray:none;stroke-opacity:1;paint-order:markers stroke fill" />
    <path
       sodipodi:nodetypes="cccccccccccccccc"
       inkscape:connector-curvature="0"
       id="path4565-5"
       d="m 12.7,293.03125 v 0.52917 h 1.058333 c 0.547672,0.007 1.05105,0.43979 1.058334,1.05833 H 14.2875 c -0.966202,0.009 -1.583957,0.82505 -1.5875,1.5875 v 0.52917 h 2.645833 v -2.11667 c 0.0024,-0.78902 -0.665592,-1.58395 -1.5875,-1.5875 z m 1.5875,2.11667 h 0.529167 v 1.05833 h -1.5875 c 0.02704,-0.59499 0.47587,-1.04799 1.058333,-1.05833 z"
       style="font-style:normal;font-weight:normal;font-size:10.58333302px;line-height:1.25;font-family:sans-serif;letter-spacing:0px;word-spacing:0px;opacity:1;fill:#007fff;fill-opacity:1;stroke:#000000;stroke-width:0.13229167;stroke-linecap:butt;stroke-linejoin:miter;stroke-miterlimit:4;stroke-dasharray:none;stroke-opacity:1;paint-order:markers stroke fill" />
    <path
       style="opacity:1;fill:#ffffff;fill-opacity:1;stroke:none;stroke-width:0.1;stroke-linecap:butt;stroke-linejoin:miter;stroke-miterlimit:4;stroke-dasharray:none;stroke-opacity:1"
       d="m 0.26458336,293.03125 v 0.52917 c 0.003544,0.8658 0.70988651,1.58691 1.58749994,1.5875 H 2.38125 l 0.013697,-0.525 -0.5428634,-0.004 c -0.6451187,-0.004 -1.04514349,-0.51361 -1.05833327,-1.05833 l 1.1379e-4,-0.52917 z"
       id="path4543-2"
       inkscape:connector-curvature="0"
       sodipodi:nodetypes="ccccccccc" />
    <path
       sodipodi:nodetypes="ccccc"
       inkscape:connector-curvature="0"
       id="path4585-9"
       d="m 7.6729167,293.56042 v 1.5875 h 0.5291666 v -1.5875 z"
       style="font-style:normal;font-weight:normal;font-size:medium;line-height:1.25;font-family:sans-serif;letter-spacing:0px;word-spacing:0px;opacity:1;fill:#f7f7f7;fill-opacity:1;stroke:none;stroke-width:0.26458332px;stroke-linecap:butt;stroke-linejoin:miter;stroke-opacity:1" />
    <path
       sodipodi:nodetypes="cccccc"
       inkscape:connector-curvature="0"
       id="path4565-54"
       d="m 3.7041667,296.20626 c 0.027043,-0.59499 0.4758708,-1.04799 1.0583333,-1.05833 h 0.5291666 v -0.52917 H 4.7625 c -0.9662017,0.009 -1.5839564,0.82505 -1.5875,1.5875"
       style="font-style:normal;font-weight:normal;font-size:medium;line-height:1.25;font-family:sans-serif;letter-spacing:0px;word-spacing:0px;opacity:1;fill:#ffffff;fill-opacity:1;stroke:none;stroke-width:0.26458332px;stroke-linecap:butt;stroke-linejoin:miter;stroke-opacity:1" />
    <path
       sodipodi:nodetypes="cccccc"
       inkscape:connector-curvature="0"
       id="path4565-54-3"
       d="m 13.229167,296.20625 c 0.02704,-0.59499 0.475871,-1.04799 1.058333,-1.05833 h 0.529167 v -0.52917 H 14.2875 c -0.966201,0.009 -1.583956,0.82505 -1.5875,1.5875"
       style="font-style:normal;font-weight:normal;font-size:medium;line-height:1.25;font-family:sans-serif;letter-spacing:0px;word-spacing:0px;opacity:1;fill:#ffffff;fill-opacity:1;stroke:none;stroke-width:0.26458332px;stroke-linecap:butt;stroke-linejoin:miter;stroke-opacity:1" />
    <path
       sodipodi:nodetypes="ccccccccccccccc"
       inkscape:connector-curvature="0"
       id="path835"
       d="m 10.054167,293.03125 v 3.70417 h 2.381249 v -0.52917 c -0.0043,-0.63391 -0.364959,-1.09241 -0.714168,-1.32291 0.352132,-0.23342 0.712868,-0.7007 0.714168,-1.32292 v -0.52917 z m 0.529166,0.52917 h 1.322917 c -0.03122,0.63341 -0.477542,1.0505 -1.058334,1.05834 v 0.52916 c 0.598332,0.0137 1.051504,0.48268 1.058334,1.05834 h -1.322917 z"
       style="opacity:1;fill:#007fff;fill-opacity:1;stroke:#000000;stroke-width:0.13229166;stroke-linecap:butt;stroke-linejoin:miter;stroke-miterlimit:4;stroke-dasharray:none;stroke-opacity:1;paint-order:markers stroke fill" />
    <path
       sodipodi:nodetypes="ccccccc"
       inkscape:connector-curvature="0"
       id="path835-6"
       d="m 12.435416,296.20625 c -0.0043,-0.63391 -0.364959,-1.09241 -0.714168,-1.32291 0.352132,-0.23342 0.712868,-0.7007 0.714168,-1.32292 H 11.90625 c -0.03122,0.63341 -0.477542,1.0505 -1.058334,1.05834 v 0.52916 c 0.598332,0.0137 1.051504,0.48268 1.058334,1.05834"
       style="opacity:1;fill:#ffffff;fill-opacity:1;stroke:none;stroke-width:0.26458332px;stroke-linecap:butt;stroke-linejoin:miter;stroke-opacity:1" />
  </g>
</svg>
